<?xml version="1.0" encoding="UTF-8"?> <svg xmlns="http://www.w3.org/2000/svg" xmlns:xlink="http://www.w3.org/1999/xlink" xmlns:xodm="http://www.corel.com/coreldraw/odm/2003" xml:space="preserve" width="210mm" height="140mm" version="1.1" style="shape-rendering:geometricPrecision; text-rendering:geometricPrecision; image-rendering:optimizeQuality; fill-rule:evenodd; clip-rule:evenodd" viewBox="0 0 21000 14000"> <defs> <style type="text/css"> .fil0 {fill:#3865E5} </style> </defs> <g id="Capa_x0020_1"> <metadata id="CorelCorpID_0Corel-Layer"></metadata> <g> <path id="logotipo" class="fil0" d="M12647.98 9569.55c-321.19,0 -575.47,107.08 -789.58,334.59 -214.11,227.52 -307.78,508.55 -307.78,856.49 0,347.95 107.08,642.37 321.19,869.9 214.11,227.5 468.39,334.58 789.56,334.58 321.2,0 588.87,-107.08 789.58,-334.58 214.11,-227.53 321.2,-508.56 321.2,-869.9 0,-347.94 -107.09,-642.38 -321.2,-856.49 -214.16,-227.56 -481.78,-334.59 -802.97,-334.59l0 0zm1070.59 -2408.93l1017.14 0 0 5620.83 -1017.14 0 0 -428.28c-200.75,187.36 -401.51,321.19 -602.2,414.86 -200.78,80.33 -414.89,120.45 -655.8,120.45 -521.95,0 -976.96,-200.76 -1365.07,-615.62 -388.11,-401.53 -575.47,-910.06 -575.47,-1512.28 0,-628.98 187.36,-1137.56 548.7,-1539.03 374.71,-401.51 816.38,-602.22 1351.69,-602.22 240.92,0 468.37,40.16 682.53,133.83 214.11,93.69 414.87,227.52 588.87,414.86l0 -2007.4 26.75 0zm-5058.71 1472.12c-200.76,0 -388.11,40.15 -575.45,120.42 -187.36,80.33 -401.53,214.11 -629,401.52l0 -414.86 -1017.12 0 0 4054.99 1017.09 0 0 -1632.73c0,-428.25 13.39,-695.89 40.14,-829.72 53.53,-240.92 160.61,-428.28 307.8,-575.45 147.2,-133.86 321.2,-200.77 535.31,-200.77 160.58,0 294.42,40.16 401.5,120.44 107.09,80.33 187.36,200.75 227.51,361.35 40.16,160.59 66.92,481.79 66.92,963.57l0 1793.31 1003.74 0 0 -2676.62c0,-468.37 -120.44,-816.37 -347.94,-1057.23 -294.45,-294.39 -629.03,-428.22 -1030.5,-428.22l0 0zm8631.97 936.81c-307.78,0 -575.45,107.08 -789.56,334.59 -214.11,227.52 -307.8,508.55 -307.8,856.49 0,347.95 107.08,642.37 321.19,869.9 214.11,227.5 468.39,334.58 776.22,334.58 321.2,0 588.87,-107.08 789.57,-334.58 214.11,-227.53 321.19,-508.56 321.19,-869.9 0,-347.94 -107.08,-642.38 -321.19,-856.49 -200.76,-227.56 -468.43,-334.59 -789.62,-334.59l0 0zm1070.64 -843.14l1137.53 0 0 4068.4 -1057.25 0 0 -950.17c-66.92,441.61 -655.78,829.72 -789.56,883.28 -133.84,53.53 -254.28,133.84 -655.78,120.44 -388.12,0 -829.75,-147.19 -1244.61,-562.11 -388.12,-401.5 -575.46,-910.05 -575.46,-1512.28 0,-628.97 187.34,-1137.56 548.7,-1539.01 374.7,-401.52 816.37,-602.22 1351.68,-602.22 240.92,0 468.38,40.15 682.55,133.83 214.09,93.67 414.86,227.51 588.86,414.87l-0.05 -455.03 13.39 0zm-14747.97 843.14c-321.19,0 -575.47,107.08 -789.58,334.59 -214.11,227.52 -307.78,508.55 -307.78,856.49 0,347.95 107.08,642.37 321.19,869.9 214.1,227.5 468.37,334.58 789.57,334.58 321.19,0 588.86,-107.08 789.58,-334.58 214.09,-227.53 321.17,-508.56 321.17,-869.9 0,-347.94 -107.08,-642.38 -321.17,-856.49 -214.11,-227.56 -481.8,-334.59 -802.98,-334.59l0 0zm1070.65 -843.14l1137.51 0 0 4068.4 -1057.24 0 0 -950.17c-66.91,441.61 -655.8,829.72 -789.58,883.28 -133.83,53.53 -254.27,133.84 -655.78,120.44 -388.11,0 -829.73,-147.19 -1244.59,-562.11 -388.11,-401.5 -575.47,-910.05 -575.47,-1512.28 0,-628.97 187.36,-1137.56 548.7,-1539.01 374.72,-401.52 816.39,-602.22 1351.69,-602.22 240.92,0 468.37,40.15 682.54,133.83 214.11,93.67 414.86,227.51 588.86,414.87l-0.06 -455.03 13.42 0zm9555.37 -6637.91c53.52,-40.17 66.91,-133.84 26.77,-187.36l-267.64 -374.75c-40.16,-53.51 -120.42,-66.92 -160.58,-26.75l-1244.65 990.33c-53.52,40.15 -160.61,80.31 -227.52,80.31l-1164.28 0c-642.37,13.41 -709.29,441.64 -709.29,441.64 -227.52,-521.95 -709.3,-441.64 -709.3,-441.64l-1124.17 0c-66.92,0 -174,-40.16 -227.51,-80.31l-1177.69 -923.42c-53.51,-40.16 -133.84,-40.16 -187.34,13.4l-321.19 294.44c-53.53,53.52 -53.53,120.44 0,174l1445.34 1324.92c53.52,40.17 93.69,133.84 93.69,214.11l13.39 3479.57c0,66.92 53.53,120.44 120.44,120.44l3747.21 -0.05c66.92,0 120.42,-53.51 120.42,-120.44l0 -1043.9c0,-66.91 53.52,-120.42 120.44,-120.42l588.87 13.4c66.91,0 107.08,-53.51 93.67,-120.43l-495.18 -2181.42c-13.41,-66.91 13.39,-160.58 66.92,-200.75l1579.18 -1324.92zm-3760.6 1110.76c307.78,0 548.7,227.52 548.7,495.19 0,281.03 -240.92,495.19 -548.7,495.19 -307.78,0 -548.7,-227.52 -548.7,-495.19 0,-267.67 254.27,-495.19 548.7,-495.19l0 0zm1539.03 990.33l-910.06 722.7c-53.5,40.16 -93.67,133.83 -93.67,200.75l0 1860.23c0,93.67 -93.69,174 -187.36,174l-736.05 -0.06c-107.09,0 -200.76,-80.31 -200.76,-174l0 -1846.81c0,-66.92 -40.16,-160.59 -93.67,-200.75l-910.05 -722.7c-53.53,-40.17 -66.92,-120.44 -26.76,-187.36l133.84 -187.36c40.15,-53.5 120.42,-66.92 174,-40.15 0,0 508.53,321.18 628.97,388.1 120.43,66.91 388.11,174 655.78,174 267.68,0 548.7,-107.09 655.79,-174 120.44,-66.92 628.97,-388.1 628.97,-388.1 53.52,-40.16 133.84,-26.77 174,40.15l133.84 187.36c40.11,53.56 26.75,133.83 -26.81,174l0 0zm-2663.2 -1793.31c-388.11,0 -709.29,-294.42 -709.29,-642.37 0,-361.36 321.18,-642.39 709.29,-642.39 388.11,0 709.3,294.45 709.3,642.39 -13.41,361.34 -321.19,642.37 -709.3,642.37l0 0zm2275.09 0c-388.11,0 -709.31,-294.42 -709.31,-642.37 0,-361.36 321.2,-642.39 709.31,-642.39 388.11,0 709.3,294.45 709.3,642.39 -13.35,361.34 -321.19,642.37 -709.3,642.37z"></path> </g> </g> </svg> 